<svg id="Capa_1" enable-background="new 0 0 512 512" height="512" viewBox="0 0 512 512" width="512" xmlns="http://www.w3.org/2000/svg"><g><path d="m206 156.787h100v-.272l-100-.455z"/><path d="m146 119.787v36l60 .273v-36.273c0-27.614 22.386-50 50-50l19-31-19-29c-60.751 0-110 49.249-110 110z" fill="#ff6a6d"/><path d="m306 119.787v36.727l60 .273v-37c0-60.751-49.249-110-110-110v60c27.614 0 50 22.386 50 50z" fill="#ec2176"/><path d="m512 146.362h-256l-15 47.425 15 49 148 25 108-25z" fill="#100f4d"/><path d="m0 146.362v96.425l129 31 127-31v-96.425z" fill="#433f73"/><path d="m0 302.787v199.426h256l21-103.426-21-96-146-30z" fill="#433f73"/><path d="m512 302.787-124-20-132 20v199.426h256z" fill="#100f4d"/><path d="m159 242.787-30 12-30-12h-99v60h256l28-32-28-28z" fill="#e7f2ff"/><path d="m256 242.787h256v60h-256z" fill="#d0e8ff"/><path d="m129 351.787c-16.569 0-30-13.431-30-30v-79h60v79c0 16.569-13.431 30-30 30z" fill="#ffe144"/><path d="m432 426.787h30v30h-30z" fill="#ffb654"/></g></svg>